<svg width="81" height="82" viewBox="0 0 81 82" fill="none" xmlns="http://www.w3.org/2000/svg">
<rect x="0.5" y="0.5" width="81" height="81" rx="40.5" fill="#EFF1F5"/>
<mask id="mask0_1_5419" style="mask-type:alpha" maskUnits="userSpaceOnUse" x="21" y="21" width="40" height="40">
<rect x="21" y="21" width="40" height="40" fill="#D9D9D9"/>
</mask>
<g mask="url(#mask0_1_5419)">
<path d="M32.8158 45.5344H43.2368C43.6059 45.5344 43.9153 45.4096 44.165 45.1599C44.4146 44.9102 44.5394 44.6007 44.5394 44.2316C44.5394 43.8624 44.4146 43.5532 44.165 43.3039C43.9153 43.0546 43.6059 42.9299 43.2368 42.9299H32.8158C32.4467 42.9299 32.1373 43.0548 31.8877 43.3044C31.638 43.5542 31.5132 43.8636 31.5132 44.2327C31.5132 44.6019 31.638 44.9111 31.8877 45.1604C32.1373 45.4098 32.4467 45.5344 32.8158 45.5344ZM32.8158 40.3252H50.1842C50.5533 40.3252 50.8627 40.2004 51.1124 39.9507C51.362 39.701 51.4868 39.3915 51.4868 39.0224C51.4868 38.6532 51.362 38.344 51.1124 38.0947C50.8627 37.8454 50.5533 37.7207 50.1842 37.7207H32.8158C32.4467 37.7207 32.1373 37.8456 31.8877 38.0952C31.638 38.345 31.5132 38.6544 31.5132 39.0235C31.5132 39.3927 31.638 39.7019 31.8877 39.9512C32.1373 40.2006 32.4467 40.3252 32.8158 40.3252ZM32.8158 35.116H50.1842C50.5533 35.116 50.8627 34.9912 51.1124 34.7415C51.362 34.4917 51.4868 34.1823 51.4868 33.8132C51.4868 33.444 51.362 33.1348 51.1124 32.8855C50.8627 32.6362 50.5533 32.5115 50.1842 32.5115H32.8158C32.4467 32.5115 32.1373 32.6364 31.8877 32.886C31.638 33.1358 31.5132 33.4452 31.5132 33.8143C31.5132 34.1835 31.638 34.4927 31.8877 34.742C32.1373 34.9914 32.4467 35.116 32.8158 35.116ZM31.1457 52.0459L27.6688 55.522C27.1744 56.0162 26.606 56.1272 25.9636 55.855C25.3212 55.5828 25 55.0967 25 54.3967V29.1389C25 28.2618 25.3039 27.5194 25.9118 26.9116C26.5197 26.3039 27.2624 26 28.1397 26H54.8603C55.7376 26 56.4803 26.3039 57.0882 26.9116C57.6961 27.5194 58 28.2618 58 29.1389V48.907C58 49.7841 57.6961 50.5266 57.0882 51.1343C56.4803 51.7421 55.7376 52.0459 54.8603 52.0459H31.1457Z" fill="#010204"/>
</g>
<rect x="0.5" y="0.5" width="81" height="81" rx="40.5" stroke="#FFFCF1"/>
</svg>
