<svg width="32" height="32" viewBox="0 0 32 32" fill="none" xmlns="http://www.w3.org/2000/svg">
<mask id="mask0_1_5349" style="mask-type:alpha" maskUnits="userSpaceOnUse" x="0" y="0" width="32" height="32">
<rect width="32" height="32" fill="#D9D9D9"/>
</mask>
<g mask="url(#mask0_1_5349)">
<path d="M6.66665 25.1537C6.38332 25.1537 6.14583 25.0578 5.95419 24.8661C5.76252 24.6743 5.66669 24.4367 5.66669 24.1533C5.66669 23.8698 5.76252 23.6324 5.95419 23.4409C6.14583 23.2495 6.38332 23.1537 6.66665 23.1537H8.33335V13.4871C8.33335 11.711 8.88891 10.1191 10 8.71142C11.1111 7.30373 12.5556 6.40331 14.3334 6.01016V5.07682C14.3334 4.60673 14.4936 4.21143 14.8141 3.89092C15.1346 3.57041 15.5299 3.41016 16 3.41016C16.4701 3.41016 16.8654 3.57041 17.1859 3.89092C17.5064 4.21143 17.6666 4.60673 17.6666 5.07682V6.01016C19.4444 6.40331 20.8888 7.30373 22 8.71142C23.1111 10.1191 23.6666 11.711 23.6666 13.4871V23.1537H25.3333C25.6167 23.1537 25.8542 23.2496 26.0458 23.4414C26.2375 23.6331 26.3333 23.8707 26.3333 24.1542C26.3333 24.4376 26.2375 24.6751 26.0458 24.8665C25.8542 25.058 25.6167 25.1537 25.3333 25.1537H6.66665ZM16 29.0768C15.3436 29.0768 14.7778 28.8434 14.3026 28.3768C13.8274 27.9101 13.5898 27.34 13.5898 26.6665H18.4102C18.4102 27.34 18.1769 27.9101 17.7102 28.3768C17.2436 28.8434 16.6735 29.0768 16 29.0768ZM10.3333 23.1537H21.6667V13.4871C21.6667 11.9287 21.1116 10.5947 20.0014 9.48495C18.8911 8.37522 17.5565 7.82036 15.9975 7.82036C14.4385 7.82036 13.1047 8.37522 11.9961 9.48495C10.8876 10.5947 10.3333 11.9287 10.3333 13.4871V23.1537Z" fill="#555658"/>
</g>
</svg>
