<svg width="40" height="40" viewBox="0 0 40 40" fill="none" xmlns="http://www.w3.org/2000/svg">
<rect width="40" height="40" rx="20" fill="#E6EEFE"/>
<mask id="mask0_23_50" style="mask-type:alpha" maskUnits="userSpaceOnUse" x="8" y="8" width="24" height="24">
<rect x="8" y="8" width="24" height="24" fill="#D9D9D9"/>
</mask>
<g mask="url(#mask0_23_50)">
<path d="M13.6981 25.118C14.6314 24.4372 15.624 23.9141 16.676 23.5488C17.7279 23.1834 18.8359 23.0007 20 23.0007C21.1641 23.0007 22.2721 23.1834 23.324 23.5488C24.3759 23.9141 25.3686 24.4372 26.3019 25.118C26.9237 24.3513 27.3872 23.5478 27.6923 22.7074C27.9974 21.867 28.15 20.9648 28.15 20.0007C28.15 17.7673 27.35 15.8507 25.75 14.2507C24.15 12.6507 22.2333 11.8507 20 11.8507C17.7667 11.8507 15.85 12.6507 14.25 14.2507C12.65 15.8507 11.85 17.7673 11.85 20.0007C11.85 20.9648 12.0026 21.867 12.3077 22.7074C12.6128 23.5478 13.0763 24.3513 13.6981 25.118ZM20.002 21.3506C18.9212 21.3506 18.009 20.9795 17.2654 20.2373C16.5218 19.495 16.15 18.5835 16.15 17.5027C16.15 16.4218 16.5211 15.5096 17.2634 14.7661C18.0056 14.0225 18.9172 13.6507 19.998 13.6507C21.0788 13.6507 21.991 14.0218 22.7346 14.7641C23.4782 15.5063 23.85 16.4178 23.85 17.4987C23.85 18.5795 23.4788 19.4917 22.7366 20.2353C21.9944 20.9788 21.0828 21.3506 20.002 21.3506ZM20 30.3006C18.5974 30.3006 17.268 30.0295 16.0116 29.4873C14.7553 28.9451 13.6623 28.207 12.7328 27.2729C11.8033 26.3388 11.0654 25.2439 10.5193 23.9881C9.9731 22.7324 9.70001 21.3991 9.70001 19.9882C9.70001 18.5773 9.9731 17.2481 10.5193 16.0007C11.0654 14.7533 11.8033 13.6625 12.7328 12.7284C13.6623 11.7943 14.7553 11.0562 16.0116 10.514C17.268 9.97179 18.6016 9.70068 20.0125 9.70068C21.4234 9.70068 22.7525 9.97377 24 10.5199C25.2474 11.0661 26.3362 11.8042 27.2663 12.7343C28.1964 13.6645 28.9346 14.7526 29.4807 15.9987C30.0269 17.2447 30.3 18.5787 30.3 20.0007C30.3 21.4032 30.0289 22.7327 29.4866 23.989C28.9444 25.2454 28.2063 26.3383 27.2722 27.2679C26.3382 28.1974 25.2481 28.9352 24.002 29.4814C22.7559 30.0276 21.4219 30.3006 20 30.3006Z" fill="#0554F2"/>
</g>
</svg>
