<svg width="24" height="24" viewBox="0 0 24 24" fill="none" xmlns="http://www.w3.org/2000/svg">
<mask id="mask0_1_5471" style="mask-type:alpha" maskUnits="userSpaceOnUse" x="0" y="0" width="24" height="24">
<rect width="24" height="24" fill="#D9D9D9"/>
</mask>
<g mask="url(#mask0_1_5471)">
<path d="M14.577 22.4233C14.1924 22.4233 13.8654 22.2887 13.5962 22.0195C13.327 21.7502 13.1924 21.4233 13.1924 21.0387V14.5772C13.1924 14.1926 13.327 13.8656 13.5962 13.5964C13.8654 13.3272 14.1924 13.1926 14.577 13.1926H21.0385C21.4231 13.1926 21.75 13.3272 22.0193 13.5964C22.2885 13.8656 22.4231 14.1926 22.4231 14.5772V21.0387C22.4231 21.4233 22.2885 21.7502 22.0193 22.0194C21.75 22.2887 21.4231 22.4233 21.0385 22.4233H14.577ZM14.577 21.0387H21.0385V20.2964C20.6539 19.8182 20.184 19.4377 19.6289 19.155C19.0737 18.8723 18.4667 18.731 17.8077 18.731C17.1488 18.731 16.5417 18.8723 15.9866 19.155C15.4315 19.4377 14.9616 19.8182 14.577 20.2964V21.0387ZM17.8077 17.8079C18.1923 17.8079 18.5193 17.6733 18.7885 17.4041C19.0577 17.1349 19.1923 16.8079 19.1923 16.4233C19.1923 16.0387 19.0577 15.7118 18.7885 15.4426C18.5193 15.1733 18.1923 15.0387 17.8077 15.0387C17.4231 15.0387 17.0962 15.1733 16.827 15.4426C16.5577 15.7118 16.4231 16.0387 16.4231 16.4233C16.4231 16.8079 16.5577 17.1349 16.827 17.4041C17.0962 17.6733 17.4231 17.8079 17.8077 17.8079ZM12.0116 9.00028C11.1795 9.00028 10.4715 9.29226 9.88758 9.87623C9.30362 10.4602 9.01163 11.1682 9.01163 12.0003C9.01163 12.6656 9.19336 13.2502 9.55681 13.7541C9.92027 14.2579 10.4014 14.6169 11.0001 14.831V13.1387C10.8539 13.0054 10.736 12.8314 10.6462 12.6166C10.5565 12.4019 10.5116 12.1964 10.5116 12.0003C10.5116 11.5836 10.6574 11.2294 10.9491 10.9378C11.2407 10.6461 11.5949 10.5003 12.0116 10.5003C12.2449 10.5003 12.4549 10.5461 12.6414 10.6378C12.8279 10.7294 12.9879 10.8503 13.1212 11.0003H14.8231C14.6192 10.408 14.2644 9.92655 13.7587 9.55605C13.2529 9.18553 12.6705 9.00028 12.0116 9.00028ZM11.0001 21.5002H10.4616C10.2373 21.5002 10.0462 21.4281 9.88856 21.2839C9.73086 21.1396 9.63534 20.9554 9.60201 20.731L9.31163 18.4541C9.04368 18.3643 8.769 18.2387 8.48758 18.0772C8.20617 17.9156 7.95456 17.7425 7.73276 17.5579L5.64431 18.4387C5.43021 18.5323 5.21771 18.5432 5.00681 18.4714C4.79591 18.3996 4.6302 18.265 4.50968 18.0675L3.00588 15.4483C2.89177 15.2509 2.85651 15.04 2.90011 14.8157C2.94369 14.5913 3.05587 14.4105 3.23663 14.2734L5.04433 12.906C5.02125 12.7573 5.0049 12.608 4.99528 12.458C4.98567 12.308 4.98086 12.1586 4.98086 12.0099C4.98086 11.8676 4.98567 11.723 4.99528 11.5762C5.0049 11.4294 5.02125 11.2688 5.04433 11.0945L3.23663 9.72715C3.05587 9.58998 2.94209 9.40922 2.89531 9.18485C2.84851 8.9605 2.88537 8.74961 3.00588 8.55218L4.50968 5.95222C4.6302 5.75479 4.79431 5.62018 5.00201 5.54838C5.20969 5.47658 5.42058 5.48747 5.63468 5.58107L7.72313 6.45222C7.96417 6.26119 8.22154 6.08651 8.49526 5.92818C8.76899 5.76983 9.03791 5.64258 9.30201 5.54643L9.60201 3.28875C9.63534 3.06438 9.73406 2.87688 9.89816 2.72625C10.0623 2.5756 10.2565 2.50027 10.4809 2.50027H13.5097C13.734 2.50027 13.9298 2.5756 14.0971 2.72625C14.2644 2.87688 14.3648 3.06438 14.3981 3.28875L14.6885 5.55605C14.9885 5.66502 15.26 5.79226 15.5029 5.93777C15.7459 6.08329 15.9911 6.25478 16.2385 6.45222L18.3654 5.58107C18.5795 5.48747 18.7904 5.47497 18.9981 5.54357C19.2058 5.61216 19.3699 5.74517 19.4904 5.9426L20.9942 8.56755C21.1147 8.76498 21.1516 8.97332 21.1048 9.19255C21.058 9.41178 20.9442 9.58998 20.7635 9.72715L19.1942 10.9233C19.2006 10.9361 19.2039 10.949 19.2039 10.9618C19.2039 10.9746 19.2071 10.9874 19.2135 11.0003H17.3616C17.3449 10.9169 17.3299 10.8342 17.3164 10.7522C17.3029 10.6701 17.2795 10.5874 17.2462 10.5041L19.4347 8.85025L18.4501 7.15025L15.9366 8.20988C15.602 7.85218 15.201 7.53615 14.7337 7.2618C14.2664 6.98743 13.7936 6.7932 13.3154 6.6791L13.0001 4.00025H11.0154L10.6847 6.66948C10.1744 6.78999 9.70326 6.97461 9.27121 7.22332C8.83916 7.47204 8.42698 7.79256 8.03468 8.18488L5.55006 7.15025L4.56543 8.85025L6.72506 10.4599C6.64172 10.697 6.58339 10.9438 6.55006 11.2003C6.51672 11.4567 6.50006 11.7265 6.50006 12.0099C6.50006 12.2701 6.51672 12.5253 6.55006 12.7753C6.58339 13.0253 6.63851 13.272 6.71543 13.5156L4.56543 15.1503L5.55006 16.8503L8.02506 15.8003C8.42506 16.2105 8.87666 16.5525 9.37986 16.8262C9.88307 17.0999 10.4231 17.2881 11.0001 17.3906V21.5002Z" fill="#555658"/>
</g>
</svg>
