<svg width="24" height="24" viewBox="0 0 24 24" fill="none" xmlns="http://www.w3.org/2000/svg">
<mask id="mask0_1_5455" style="mask-type:alpha" maskUnits="userSpaceOnUse" x="0" y="0" width="24" height="24">
<rect width="24" height="24" fill="#D9D9D9"/>
</mask>
<g mask="url(#mask0_1_5455)">
<path d="M5.99997 21.5C5.30127 21.5 4.70993 21.258 4.22595 20.774C3.74198 20.29 3.5 19.6987 3.5 19V17.4039C3.5 17.1478 3.58662 16.9331 3.75987 16.7599C3.93311 16.5866 4.14777 16.5 4.40385 16.5H6.5V3.39812C6.5 3.23531 6.57148 3.12922 6.71443 3.07985C6.85738 3.0305 6.99552 3.07249 7.12885 3.20582L7.88462 3.96158L8.96658 2.89662C9.06066 2.80402 9.16853 2.75773 9.2902 2.75773C9.41188 2.75773 9.51835 2.80452 9.6096 2.89812L10.6923 3.96158L11.7743 2.89662C11.8683 2.80402 11.9762 2.75773 12.0979 2.75773C12.2196 2.75773 12.326 2.80452 12.4173 2.89812L13.5 3.96158L14.5819 2.89662C14.676 2.80402 14.7839 2.75773 14.9056 2.75773C15.0272 2.75773 15.1337 2.80452 15.225 2.89812L16.3077 3.96158L17.3896 2.89662C17.4837 2.80402 17.5916 2.75773 17.7133 2.75773C17.8349 2.75773 17.9414 2.80452 18.0327 2.89812L19.1153 3.96158L19.8711 3.20582C20.0044 3.07249 20.1426 3.02793 20.2855 3.07215C20.4285 3.11638 20.5 3.22504 20.5 3.39812V19C20.5 19.6987 20.258 20.29 19.774 20.774C19.29 21.258 18.6987 21.5 18 21.5H5.99997ZM18 20C18.2833 20 18.5208 19.9042 18.7125 19.7125C18.9041 19.5208 19 19.2833 19 19V5H7.99998V16.5H16.0961C16.3522 16.5 16.5669 16.5866 16.7401 16.7599C16.9134 16.9331 17 17.1478 17 17.4039V19C17 19.2833 17.0958 19.5208 17.2875 19.7125C17.4791 19.9042 17.7166 20 18 20ZM9.91727 8.74998C9.71088 8.74998 9.53844 8.67807 9.39998 8.53427C9.26153 8.39046 9.1923 8.21226 9.1923 7.99968C9.1923 7.78708 9.26417 7.60898 9.40793 7.4654C9.55166 7.32182 9.72977 7.25002 9.94228 7.25002H14.1154C14.3279 7.25002 14.506 7.32193 14.6497 7.46573C14.7935 7.60954 14.8654 7.78774 14.8654 8.00033C14.8654 8.21292 14.7935 8.39102 14.6497 8.5346C14.506 8.67818 14.3279 8.74998 14.1154 8.74998H9.91727ZM9.91727 11.75C9.71088 11.75 9.53844 11.6781 9.39998 11.5343C9.26153 11.3905 9.1923 11.2123 9.1923 10.9997C9.1923 10.7871 9.26417 10.609 9.40793 10.4654C9.55166 10.3218 9.72977 10.25 9.94228 10.25H14.1154C14.3279 10.25 14.506 10.3219 14.6497 10.4657C14.7935 10.6095 14.8654 10.7877 14.8654 11.0003C14.8654 11.2129 14.7935 11.391 14.6497 11.5346C14.506 11.6782 14.3279 11.75 14.1154 11.75H9.91727ZM16.9423 8.8846C16.6974 8.8846 16.4888 8.79838 16.3163 8.62595C16.1439 8.45352 16.0577 8.24487 16.0577 8C16.0577 7.75513 16.1439 7.54648 16.3163 7.37405C16.4888 7.20162 16.6974 7.1154 16.9423 7.1154C17.1871 7.1154 17.3958 7.20162 17.5682 7.37405C17.7407 7.54648 17.8269 7.75513 17.8269 8C17.8269 8.24487 17.7407 8.45352 17.5682 8.62595C17.3958 8.79838 17.1871 8.8846 16.9423 8.8846ZM16.9423 11.8846C16.6974 11.8846 16.4888 11.7984 16.3163 11.6259C16.1439 11.4535 16.0577 11.2449 16.0577 11C16.0577 10.7551 16.1439 10.5465 16.3163 10.374C16.4888 10.2016 16.6974 10.1154 16.9423 10.1154C17.1871 10.1154 17.3958 10.2016 17.5682 10.374C17.7407 10.5465 17.8269 10.7551 17.8269 11C17.8269 11.2449 17.7407 11.4535 17.5682 11.6259C17.3958 11.7984 17.1871 11.8846 16.9423 11.8846ZM5.99997 20H15.5V18H4.99997V19C4.99997 19.2833 5.09581 19.5208 5.28747 19.7125C5.47914 19.9042 5.71664 20 5.99997 20Z" fill="#010204"/>
</g>
</svg>
