<svg width="32" height="32" viewBox="0 0 32 32" fill="none" xmlns="http://www.w3.org/2000/svg">
<g filter="url(#filter0_dd_22_54)">
<mask id="mask0_22_54" style="mask-type:alpha" maskUnits="userSpaceOnUse" x="0" y="0" width="32" height="32">
<rect width="32" height="32" fill="#D9D9D9"/>
</mask>
<g mask="url(#mask0_22_54)">
<path d="M15.1692 18.6948L12.1898 15.7154C11.8103 15.3359 11.7244 14.8996 11.9321 14.4064C12.1398 13.9133 12.5137 13.6667 13.0539 13.6667H18.9718C19.5119 13.6667 19.8858 13.9133 20.0935 14.4064C20.3012 14.8996 20.2153 15.3359 19.8359 15.7154L16.8564 18.6948C16.7316 18.8196 16.6 18.9111 16.4615 18.9692C16.3231 19.0273 16.1735 19.0564 16.0128 19.0564C15.8521 19.0564 15.7026 19.0273 15.5641 18.9692C15.4256 18.9111 15.294 18.8196 15.1692 18.6948Z" fill="#1C1B1F"/>
</g>
</g>
<defs>
<filter id="filter0_dd_22_54" x="7.8219" y="13.6667" width="16.3818" height="13.3897" filterUnits="userSpaceOnUse" color-interpolation-filters="sRGB">
<feFlood flood-opacity="0" result="BackgroundImageFix"/>
<feColorMatrix in="SourceAlpha" type="matrix" values="0 0 0 0 0 0 0 0 0 0 0 0 0 0 0 0 0 0 127 0" result="hardAlpha"/>
<feOffset dy="4"/>
<feGaussianBlur stdDeviation="2"/>
<feComposite in2="hardAlpha" operator="out"/>
<feColorMatrix type="matrix" values="0 0 0 0 0 0 0 0 0 0 0 0 0 0 0 0 0 0 0.25 0"/>
<feBlend mode="normal" in2="BackgroundImageFix" result="effect1_dropShadow_22_54"/>
<feColorMatrix in="SourceAlpha" type="matrix" values="0 0 0 0 0 0 0 0 0 0 0 0 0 0 0 0 0 0 127 0" result="hardAlpha"/>
<feOffset dy="4"/>
<feGaussianBlur stdDeviation="2"/>
<feComposite in2="hardAlpha" operator="out"/>
<feColorMatrix type="matrix" values="0 0 0 0 0 0 0 0 0 0 0 0 0 0 0 0 0 0 0.25 0"/>
<feBlend mode="normal" in2="effect1_dropShadow_22_54" result="effect2_dropShadow_22_54"/>
<feBlend mode="normal" in="SourceGraphic" in2="effect2_dropShadow_22_54" result="shape"/>
</filter>
</defs>
</svg>
