<svg width="24" height="24" viewBox="0 0 24 24" fill="none" xmlns="http://www.w3.org/2000/svg">
<mask id="mask0_1_5463" style="mask-type:alpha" maskUnits="userSpaceOnUse" x="0" y="0" width="24" height="24">
<rect width="24" height="24" fill="#D9D9D9"/>
</mask>
<g mask="url(#mask0_1_5463)">
<path d="M6.03845 17.5L3.27307 20.2653C3.12564 20.4128 2.95994 20.4496 2.77598 20.3759C2.59199 20.3022 2.5 20.1615 2.5 19.9538V4.30772C2.5 3.80259 2.675 3.37502 3.025 3.02502C3.375 2.67502 3.80257 2.50002 4.3077 2.50002H19.6923C20.1974 2.50002 20.625 2.67502 20.975 3.02502C21.325 3.37502 21.5 3.80259 21.5 4.30772V15.6923C21.5 16.1974 21.325 16.625 20.975 16.975C20.625 17.325 20.1974 17.5 19.6923 17.5H6.03845ZM4.69233 16H19.6923C19.7692 16 19.8397 15.9679 19.9038 15.9038C19.9679 15.8397 20 15.7692 20 15.6923V4.30772C20 4.23079 19.9679 4.16027 19.9038 4.09615C19.8397 4.03205 19.7692 4 19.6923 4H4.3077C4.23077 4 4.16024 4.03205 4.09613 4.09615C4.03202 4.16027 3.99998 4.23079 3.99998 4.30772V16.6923L4.69233 16ZM12 12.3211L13.7846 13.4038C13.9487 13.5077 14.1128 13.5019 14.2769 13.3865C14.441 13.2711 14.5012 13.1147 14.4577 12.9173L13.9865 10.8865L15.5711 9.51732C15.725 9.38014 15.7718 9.2186 15.7115 9.0327C15.6512 8.8468 15.5173 8.74552 15.3096 8.72885L13.2288 8.55385L12.4115 6.63847C12.3346 6.45771 12.1974 6.36732 12 6.36732C11.8025 6.36732 11.6654 6.45771 11.5885 6.63847L10.7711 8.55385L8.69038 8.72885C8.48269 8.74552 8.34872 8.8468 8.28845 9.0327C8.2282 9.2186 8.275 9.38014 8.42885 9.51732L10.0135 10.8865L9.5423 12.9173C9.49872 13.1147 9.55898 13.2711 9.72308 13.3865C9.88718 13.5019 10.0513 13.5077 10.2154 13.4038L12 12.3211Z" fill="#555658"/>
</g>
</svg>
